<?xml version="1.0" encoding="UTF-8"?>
<svg id="_レイヤー_2" data-name="レイヤー 2" xmlns="http://www.w3.org/2000/svg" viewBox="0 0 265.11 115.34">
  <defs>
    <style>
      .cls-1 {
        fill: #fff;
      }

      .cls-2 {
        fill: none;
        stroke: #fff;
        stroke-linecap: round;
        stroke-linejoin: round;
        stroke-width: 4px;
      }
    </style>
  </defs>
  <g id="_レイヤー_1-2" data-name="レイヤー 1">
    <path class="cls-1" d="M38.91,31.68c1.25,5.71.24,7.58-3.78,8.63s-5.43-.2-6.83-5.57c.16,4.98-.82,7.86-4.96,8.94-2.91.76-6.29.86-9.2-2.98-1.07-1.34-2.77-6.27-4.16-11.58-1.21-4.64-2.13-9.54-2.1-12.66.07-5.22,2.25-9.25,6.89-10.94.66-.23,1.37-.48,1.93-.62,5.65-1.47,8.76,1.3,11.37,7.61-1.04-6.3.69-10.64,6.12-12.05,7.05-1.84,11.34,2,13.88,7.86,1.26,3.02,2.42,6.54,3.31,9.95,1.02,3.92,1.69,7.63,2.11,10.38.69,5.38-1.98,7.75-5.57,8.68-4.2,1.09-6.67-1.31-9-5.66Z"/>
    <path class="cls-1" d="M70.08,35.02c-1.24-.87-1.91-1.83-2.19-2.9-.51-1.96.43-4.3,2.01-6.98-3.92,1.02-6.97-.15-6.97-.15-2.96-1.02-4.97-4.38-5.96-8.19-.34-1.29-.56-2.6-.66-3.89-.24-3.22.77-4.62,3.32-5.59.32-.14.6-.22.94-.3,2.07-.54,4.19-.2,5.1,1.9,1.36,3.17,1.56,4.85,3.58,4.33,1.9-.5.61-3.15.91-5.44.35-2.54,1.59-3.76,3.88-4.36,2.69-.7,5.99-.19,7.23,3.2.36.92.65,1.8.88,2.7,1.17,4.48.89,8.67-.13,13.24-1.58,6.99-4.6,11.24-6.66,12.49-.36.21-.85.4-1.3.52-1.23.32-2.73.29-3.97-.58Z"/>
    <path class="cls-1" d="M19.15,79.2c-3.63-.04-5.1-1.34-5.31-3.74-.05-.64-.04-1.35.1-2.14-1.33,1.89-3.26,3.48-5.73,3.7-1.2.1-2.43-.15-3.91-.73-2.28-.87-4.1-2.92-4.28-5.11-.06-.71.01-1.5.38-2.17,2.59-4.71,3.84-8.3,4.81-12.73.61-2.83,3.54-4.36,6.44-4.61,1.27-.11,2.42,0,3.45.42,1.84.7,4.27,2.48,4.71,5.08,4.58-.61,10.58-1.19,16.16-1.67,7.63-.66,14.57-1.11,16.07-1.03,3.29.22,6.34.81,6.74,5.54.29,3.39-1.89,4.58-5.96,5.21-2.74.45-13.53,1.66-23.14,2.49-5.16.44-10.04.79-13.03.83-.6,1.26-1.29,2.39-1.78,3.36.92-.86,2.18-1.11,3.57-1.52,1.53-.42,5.2-.8,9.37-1.16,7.49-.64,16.57-1.07,18.49-1.09,2.56,0,5.4.68,5.64,3.5.3,3.46-.86,4.92-3.74,5.38-1.68.29-5.28.67-9.52,1.03-7,.6-15.63,1.2-19.55,1.18ZM14.42,111.15c-.89-1.21-1.34-2.31-1.42-3.22-.2-2.33,1.72-3.99,4.74-5.32-1.36-.88-2.03-2.03-2.12-3.16-.09-1.06.39-2.1,1.16-3.02,1.49-1.77,2.79-2.38,4.2-2.5,1.91-.16,3.84.81,6.73,2.13,3.27-2.56,4.71-4.04,6.17-4.45-17.52,1.58-20.85,1.01-20.85,1.01-3.03-.45-3.91-2.37-4.15-5.2-.27-3.11.85-5.06,4-5.68,1.89-.38,9.72-1.26,17.92-1.97,5.94-.51,12.16-1.05,16.56-1.14,4.12-.07,7.23,1.3,7.94,4.59.59,2.66.8,4.35,1.01,5.89.76,5.49,2.65,7.6,6.87,11.16.84.71,1.2,1.53,1.29,2.52.14,1.63-.77,3.48-2.34,5.04-1.18,1.17-2.77,1.73-4.25,1.86-1.2.1-2.43-.08-3.48-.77-6.72-4.41-10.75-9.97-11.81-18.14-2.19.19-4.16.43-6,.59,1.59.22,3.09,1.16,4.02,2,1.23,1.1,1.83,2.19,1.92,3.25.14,1.63-.87,3.14-2.45,4.63l-2.51,2.28c1.17,1.18,1.7,2.35,1.79,3.41.1,1.2-.44,2.32-1.64,3.27-1.33,1.11-2.5,1.57-3.63,1.67-1.84.16-3.41-.7-5.33-2.39-1.91,1.02-3.97,1.91-6.17,2.81-1.38.55-2.63.87-3.76.96-1.77.15-3.09-.38-4.38-2.11Z"/>
    <path class="cls-1" d="M87.59,107.97c-2.04-.14-4.06-.42-6.05-.88-.7-.16-1.27-.32-1.26-.44-2.03-2.91-4.71-5.16-7.76-6.92-.93-.53-1.52-1.5-1.57-2.57-.28-5.24-.21-13.69.65-17.97.21-1.3.72-2.36,1.67-3.16-3.65,2.61-9.55.13-7.31-5.39,2.15-5.37,1.94-9.31,1.81-15.47-.01-3.31,2.1-5.99,6.91-6.86,4.89-.95,11.59-1.05,16.83-1.28,5.63-.3,7.6,5.94,3.18,6.68-4.11.75-12.53,1.54-17.01,1.89l-.03.77c6.4-.19,13.31.1,19.05.73.69.03,1.3.21,1.82.54.03-.69-.02-1.39.01-2.08-.09-3.31,2.1-6.07,6.91-6.94,4.89-.87,11.59-.97,16.83-1.21,5.63-.3,7.6,5.86,3.18,6.68-4.11.75-12.53,1.54-17.08,1.81.06.31.05.62.04.85,6.39-.11,13.31.11,18.98.73,2.53.26,4.08,1.79,4.04,4.48-.04,2.62-1.25,3.95-4.48,3.97-.62.05-1.23.02-1.85.07.15,3.62.1,8.39-.36,10.22-.19.84-.91,1.42-2.15,1.76,1.63,1.38,2.01,3.32,1.9,6.08-.2,3.21-.69,10.33-1.25,15.19-.13,1.17-.91,2.17-2.01,2.59-3.53,1.35-6.62,3.39-9.08,6.32l-.17.03c-2.7.48-5.43.68-8.17.6-4.88-.14-11.43-.5-16.22-.82ZM66.04,105.14c1.56-5.79,10.11-4.09,12.1.56,1.39,2.98-.67,5.82-3.37,6.9-4.84,2.2-10.1-2.26-8.77-7.28l.04-.17ZM81.12,74.3c.54.02,1.16-.03,1.85,0-.22-2.09-.06-5.93.15-9-2-.09-3.99-.17-6.07-.34-.34,2.45-.75,4.89-1.39,7.33-.37,1.52-1.12,2.72-2.07,3.45,1.5-.94,3.76-1.46,7.53-1.45ZM110.75,85.02c-.13-.62-.27-1.01-.41-1.17-1.57-1.14-25.01-1.76-25.81-1.18-.16.15-.33.6-.44,1.29,7.61.17,19.14.58,26.66,1.06ZM110.79,93.33l.07-1.69c-7.85-.1-19.76-.53-27.05-.92-.02.46.03,1,.01,1.54,7,.14,18.83.57,26.97,1.07ZM109.46,100.9c.16-.15.25-.53.43-1.06-8-.19-18.9-.65-25.43-1.01.13.62.34,1.02.49,1.1,1.81.77,23.47,1.85,24.51.97ZM96.42,74.64c-.34-1.01-.29-2.17.23-3.61.86-2.04,1.32-3.87,1.63-5.7-.62.13-1.24.25-2.01.22-.62.05-1.23.02-1.85,0,.1,3.01.1,6.7-.23,8.99l2.23.09ZM113.88,65.76c-2-.09-4.07-.25-6.06-.41-.33,2.45-.82,4.89-1.39,7.33-.19.92-.53,1.67-1.02,2.27,3.3.14,6.22.34,8.37.51-.31-1.78-.2-6.24.1-9.69ZM115.4,112.92c-4.39-5.17,3.82-10.98,8.73-8.66,2.61,1.14,3.43,4.07,2.66,6.71-1.37,5.08-8.24,5.69-11.27,2.09l-.12-.13Z"/>
    <path class="cls-1" d="M164.74,81.01c5.72-1.25,13.48-5.68,16.91-7.61.67-.37,1.39-.46,2.24-.39-2.92-4.43-5.44-8.48-5.44-8.48,0,0-13.13,15.6-15.95,17.01-2.08,1.04-3.49.86-4.87-1.46-.07-.08-.13-.15-.19-.3-.6.38-1.39.53-2.47.59-3.78.12-8.94-.36-14.34-1.29-2.04-.31-4.2-.83-3.96-3.8.27-3.39,2.3-3.8,4.72-3.89,3.79-.27,10.7.57,13.22,1.06.98.15,2.03.38,2.84.94.18-.48.43-.89.68-1.44l.96-1.28c-.51.1-1.01.13-1.51.16-4.56.06-10.78-.44-17.25-1.45-2.6-.42-5.04-1.04-4.8-4.08.29-3.61,2.67-3.99,5.53-4.18,4.57-.13,12.89.82,15.91,1.27,2.67.43,5.28,1.56,5.07,4.18l-.04.49c4.56-5.4,11.25-12.55,12.63-13.79,3.06-2.6,6.27-1.85,8.41.67,1.75,2.13,12.5,17.23,14.16,20.42,1.12,2.01,1.37,5.16-.35,7.87-1.48,2.51-3.13,2.67-4.94,1.31-.74-.56-1.78-1.71-3-3.37-.25.48-.71.87-1.24,1.25-2.43,1.87-14.24,7.26-19.22,8.07-5.48.91-10.04-6.99-3.73-8.48ZM137.83,111.3c-2.32-.4-3.6-1.21-3.78-3.43-.11-3.92.11-10.31.74-13.75.3-1.97,1.69-3.28,5.04-3.37,3.5-.15,11.84.59,14.63,1.24,2.16.53,3.5,1.63,3.69,3.71.18,3.07-.51,9.92-1.21,13.35-.55,2.38-1.41,3.37-4.55,3.55-3.5.15-10.91-.59-14.56-1.31ZM139.84,88.9c-2.04-.31-4.2-.91-3.96-3.8.27-3.39,2.3-3.8,4.73-3.96,3.79-.27,10.7.57,13.22,1.06,2.25.39,4.45,1.35,4.24,3.9-.24,3.04-1.46,4.01-3.89,4.1-3.78.05-8.93-.43-14.34-1.29ZM143.12,59.49c-2.23-.61-3.07-2.59-2.51-5.04.66-2.86,2.45-3.93,5-3.73,3.32.27,6.79.54,10.39,1.83,2.28.82,3.37,2.33,2.77,5.35-.66,2.87-1.91,3.41-4.4,3.35-3.69-.15-7.41-.74-11.25-1.75ZM151.34,103.03c2.11-5.66-7.1-8.34-10.38-4.52-1.51,1.65-1.12,4.21.21,6.14,2.71,4.09,8.68,2.82,10.11-1.47l.05-.15ZM165.83,93.12c5.84-.96,14.12-4.78,17.81-6.47,4.06-1.88,10.71,4.84,5.1,8.31-2.7,1.71-15.17,6.33-20.18,6.78-5.66.47-9.14-7.56-2.73-8.62ZM165.48,105.47c5.89-.67,14.37-4.33,18.12-5.88,4.27-1.72,10.47,5.18,4.66,8.41-2.77,1.7-15.55,5.8-20.56,6.18-5.65.33-8.84-7.82-2.22-8.72Z"/>
    <path class="cls-1" d="M249.74,107.69c-.85-4.67-1.39-25.24-1.01-32.26-1.21.02-2.34.04-3.55-.02-.04,11-.81,25.2-2.27,31.39-.87,3.56-2.45,6.28-7.36,5.65-3.06-.31-4.86-2.19-4.84-5.46-.28.08-.64.15-.92.16-3.26-.02-10.99.17-15.11.24-6.74.11-10.12-2.82-10.09-9.63.04-6.67-.36-27.31-.6-33.26-.17-6.24,5.55-7.89,8.17-3.89-.35.15-.7.37-1.06.58-.07.14-.21.22-.28.36-.7.65-1.04,1.58-.95,2.5.02,1.21.68,2.4,1.76,3.38.57.42,1.22.83,1.79,1.04l.04,2.77c.55-1,1.33-1.37,2.25-1.45l3.19-.26-.03-1.7c.14-.07.28-.22.42-.36,1.26-1.37,1.86-3.51,1.54-5.63-.16-1.2-.89-2.33-1.82-2.95v-.64c.15-3.12,1.7-4.07,4.04-4.11,2.06-.03,3.42.8,3.69,4.34-.98.58-1.75,1.73-2.08,3.08-.74,2.78.65,5.31,2.3,6.42.07,0,.14.07.14.07.08.49.09.99.09,1.49,1.7.04,3.13.16,3.98.29.57.06,1.07.34,1.43.9-.02-.99-.03-1.91.03-2.77.35-.15.7-.37,1.05-.58,1.12-.8,1.88-2.09,1.93-3.37-.02-1.21-.53-2.26-1.54-3.1-.36-.28-.72-.48-1.14-.55-.07-.07-.14-.07-.29-.07.35-4.48,1.67-6.41,5.49-7.54,4.8-1.35,8.55-1.91,13.65-2.56,5.52-.65,7.81.09,9.2,2.98,1.91,3.87-.89,6.26-3.72,7.3-3.88,1.55-8.2,1.9-12.59,2.61.08.57.16,1.27.18,2.05,5.53-.44,11.2-.53,16.1-.26,2.42.17,4,1.85,4.12,4.97.12,3.05-.92,4.7-4.04,4.96-.35,0-.64.08-.92.09.74,6.16,1.84,26.5,1.37,32.68-.23,3.34-1.84,5.07-5.52,5.2-3.76.2-5.78-2.25-6.25-5.08ZM212.38,66.43c-3.28-3.1,1.65-7.74,5.14-6.55,1.42.4,2.27,1.76,2.33,3.19.42,4.07-4.48,6.24-7.36,3.47l-.12-.11ZM219.57,93.13c-.09-1.13-.18-2.69-.21-4.54-.55,1.07-1.1,2-1.59,2.58-.97,1.29-2.17,2.16-3.62.06-.22-.28-.36-.49-.51-.77l.08,4.75s2.77-.04,6.1-.03c-.15-.64-.23-1.27-.25-2.05ZM213.89,84.21l1.93-3.79c-1-.2-1.71-.4-2.22-1.17.03,1.92-.01,3.76.02,5.53.07-.21.21-.36.27-.57ZM225.77,61.84c1.37-4.17,7.71-2.06,8.29,1.57.28,1.43-.6,2.74-1.81,3.45-3.47,2.27-7.84-.84-6.53-4.87l.05-.15ZM232.03,91.72c-1.05,1.08-2.19.74-3.27-.52-.43-.49-.87-1.05-1.3-1.68.02,1.21.03,2.2-.02,3.05.01.85-.04,1.63-.24,2.42l1.35-.02c1.28-.09,2.35.39,3.21,1.3.12-1.49.17-2.98.28-4.55ZM232.48,79.51c-.42.43-.84.65-1.34.8-.28.08-.57.08-.99.16.73,1.19,1.53,2.32,2.18,3.37l.14-4.33Z"/>
    <path class="cls-2" d="M103.82,10.66c-3.89,2.09-6.41,5.47-6.41,9.27,0,1.82.59,3.53,1.62,5.06-1,1.87-2.62,3.69-4.84,5.46,4.23.62,7.67.41,9.79-1.18,2.58,1.36,5.74,2.17,9.16,2.17,2.05,0,4.02-.29,5.82-.81"/>
    <path class="cls-1" d="M226.9,18.6c0,5.88-3.37,11.09-10.64,11.09s-10.64-5.22-10.64-11.09,10.64-16.83,10.64-16.83c0,0,10.64,10.95,10.64,16.83Z"/>
    <path class="cls-1" d="M240.81,1.98c.19-.45,3.77-.36,5.94,1.88,2.7,2.8,1.46,7.16,1.39,7.42.94.11,1.86-.31,2.37-1.09.55-.83.55-1.92,0-2.77.46.33,2.16,1.65,2.28,3.66.09,1.46-.7,2.76-.89,3.07-.78,1.24-1.64,1.48-1.78,2.57-.07.56.04,1.35.49,1.58.64.33,1.84-.46,2.28-1.48.42-.99,0-1.95-.1-2.18.31.16,1.53.86,2.08,2.37.68,1.9-.26,3.54-.4,3.76.25-.24.63-.66.89-1.29.42-1.01.28-1.91.2-2.28.73,1.26.8,2.32.79,2.87-.02,1.28-.52,2.22-1.19,3.46-.22.41-.82,1.49-1.58,2.37-1.1,1.27-3.87,3.72-7.72,3.76-5.09.05-8.16-4.15-9.1-5.44-.65-.89-1.64-2.28-1.88-4.35-.2-1.7.2-3.09.49-3.86.11.56.36,1.46.99,2.37.4.58.84,1,1.19,1.29-.15-.54-.33-1.46-.2-2.57.12-1.01.45-1.79.69-2.28-.05.12-.4.91,0,1.78.3.65.96,1.34,1.48,1.19.34-.1.55-.54.59-.89.09-.69-.4-1.22-.79-1.78,0,0-1.06-1.52-1.29-3.27-.21-1.63.83-3,1.39-3.76.43-.59.87-1.01,1.19-1.29-.09.15-.51.87-.3,1.78.01.06.25,1.22.79,1.29.59.07,1.17-1.2,1.39-1.68.2-.44.5-1.13.49-2.08,0-1.17-.48-2.01-.69-2.37-.72-1.25-1.58-1.55-1.48-1.78Z"/>
    <path class="cls-1" d="M197.57,23.94c-5.81.86-11.21-3.16-12.07-8.97-.11-.72-.14-1.44-.1-2.15.23-4.26,3.02-7.99,7.04-9.42-1.74-.48-3.6-.61-5.5-.33-6.74.99-11.56,6.85-11.43,13.49,0,.3,0,.6.05.91.02.26.05.53.09.79.86,5.8,5.31,10.18,10.76,11.2,1.42.27,2.91.31,4.43.08,4.16-.61,7.59-3.08,9.57-6.44-.89.4-1.84.69-2.85.84Z"/>
    <g>
      <path class="cls-1" d="M148.65,24.23c2.56-.52,5.12-1.12,7.59-1.79-1.64,1.86-3.86,3.73-9.3,7.25-2.63-1.71-4.51-3.02-5.93-4.14.58-.08,1.17-.17,1.75-.26,1.96-.31,3.93-.67,5.88-1.07Z"/>
      <path class="cls-1" d="M158.61,19.42c-.26.34-.5.67-.74.98-.07.02-.14.04-.21.06-1.45.44-2.97.86-4.55,1.25-1.57.4-3.18.76-4.81,1.09-3,.61-6.03,1.12-8.86,1.45-1.85-1.66-2.77-2.97-4.18-4.84-1.2-1.6-1.86-3.84-1.86-6.05s.65-4.33,2.06-5.74c2.82-2.82,7.63-3.43,11.47,1.66,3.84-5.1,8.65-4.48,11.47-1.66,2.83,2.82,2.6,8.6.2,11.78Z"/>
      <path class="cls-1" d="M139.46,24.25c.46.41.97.84,1.56,1.3-1.36.19-2.71.36-4.03.49-1.89.19-3.73.31-5.43.33-1.7.02-3.28-.05-4.51-.29-1.22-.23-2.04-.65-2.12-1.21-.1-.56.53-1.26,1.6-1.93.07-.04.13-.09.2-.13l.22-.13c.15-.08.29-.17.45-.25.32-.16.63-.33.99-.49.34-.16.71-.32,1.08-.48.18-.08.38-.15.57-.23.2-.08.38-.15.59-.23.41-.15.8-.3,1.22-.44.12-.04.23-.08.35-.12.15.31.36.57.62.8,0,0-.01,0-.02,0-.56.26-1.1.51-1.54.76-.23.12-.42.24-.63.37-.1.06-.17.12-.26.18l-.13.09s-.07.06-.11.09c-.59.46-.79.86-.61,1.17.19.31.76.52,1.63.64.87.12,2.04.14,3.33.11,1.31-.05,2.75-.15,4.27-.32.23-.03.46-.05.7-.08Z"/>
      <path class="cls-1" d="M169.06,17.46c-.48.35-1.07.7-1.73,1.04-.66.34-1.4.68-2.18,1-1.55.65-3.28,1.26-5.08,1.83-1.25.39-2.53.76-3.84,1.12.58-.66,1.08-1.31,1.64-2.04,1.36-.42,2.65-.86,3.78-1.31,1.18-.47,2.19-.94,2.89-1.38.7-.44,1.08-.85,1.06-1.19l-.02-.13s-.05-.08-.07-.12c-.01-.02-.02-.04-.04-.06l-.06-.05-.06-.05s-.04-.04-.07-.05c-.19-.14-.52-.24-.89-.33-.39-.09-.84-.15-1.36-.2.1-.37.1-.77.1-1.16,1.7-.08,3.28-.05,4.6.12.64.1,1.22.22,1.66.4.12.04.2.1.3.14l.14.07s.07.06.11.08c.06.06.14.12.19.17l.12.19c.26.53-.21,1.22-1.18,1.91Z"/>
    </g>
  </g>
</svg>